<?xml version="1.0" encoding="UTF-8"?><svg id="Laag_1" xmlns="http://www.w3.org/2000/svg" width="64.09mm" height="63.97mm" viewBox="0 0 181.67 181.34"><defs><style>.cls-1{fill:#fff;}</style></defs><g id="_x31_9lhJp.tif"><path class="cls-1" d="M130.55,91.14c-.72,22.03-19,39.85-40.19,39.17-22.08-.72-39.93-18.96-39.24-40.11.72-22.03,19-39.85,40.19-39.17,22.08.72,39.93,18.96,39.24,40.11ZM102.18,98.4v-15.37h-22.74v15.37h22.74ZM101.6,74.58c-2.66-4.9-4.72-9.3-7.33-13.34-1.92-2.97-4.86-3.07-6.82-.03-2.61,4.04-4.71,8.41-7.43,13.37h21.58ZM101.52,106.71h-21.27c2.29,4.59,3.93,8.88,6.42,12.59,2.8,4.17,5.23,4.2,8.1.1,2.57-3.67,4.27-7.94,6.75-12.69ZM59.73,98.34h11.1v-15.34h-11.1v15.34ZM110.9,82.88v15.42h10.76v-15.42h-10.76ZM117.18,74.69c.31-.37.63-.73.94-1.1-3.95-3.71-7.91-7.42-11.86-11.13-.31.33-.62.67-.93,1,1.36,3.77,2.73,7.54,4.06,11.22h7.8ZM72.46,106.89h-8.22c-.22.36-.43.73-.65,1.09,3.96,3.62,7.92,7.25,11.87,10.87.28-.33.56-.67.84-1-1.29-3.67-2.58-7.34-3.85-10.96ZM72.55,74.58c1.18-3.76,2.31-7.38,3.44-11-.43-.29-.87-.58-1.3-.87-3.67,3.65-7.35,7.3-11.94,11.87h9.8ZM105.66,117.58c.47.34.94.67,1.4,1.01,3.64-3.66,7.28-7.31,11.76-11.81h-9.69c-1.2,3.72-2.34,7.26-3.47,10.8Z"/></g></svg>