<?xml version="1.0" encoding="UTF-8"?><svg id="Laag_1" xmlns="http://www.w3.org/2000/svg" width="64.09mm" height="63.97mm" viewBox="0 0 181.67 181.34"><defs><style>.cls-1{fill:#fff;}</style></defs><g id="xIe2dF.tif"><path class="cls-1" d="M109.16,52.97v12.78c.75.36,1.12.7,1.41.64,9.67-1.75,14.65,3.33,20.37,10.74,8.45,10.96,12.58,22.13,10.77,35.66-.18,1.32-.02,2.69-.02,4.35-1.24.22-2.34.68-3.38.57-5.24-.57-9.03.67-12.7,5.26-6.22,7.76-17.44,6.97-22.77-1.33-2.21-3.44-4.47-4.12-7.92-3.91-2.71.16-5.44.2-8.14-.01-3.02-.24-4.74.71-6.43,3.5-5.21,8.59-17.98,9.75-23.67,1.64-3.26-4.65-6.68-5.53-11.48-5.12-1.72.15-3.47.02-5.65.02V52.97h69.62ZM48.83,62.06v47.82c2.68-1.92,4.8-2.76,5.86-4.31,6.95-10.12,19.44-10.03,26.33.26.74,1.1,2.17,2.38,3.35,2.45,4.96.27,9.95.12,14.86.12v-46.33h-50.4ZM109.28,98.68c8.33-1.89,14.85.27,19.1,7.97.52.95,2.08,1.32,3.27,2.03,2.09-8.56.02-15.21-5.08-21.12-1.64-1.89-3.44-3.81-4.45-6.04-2.68-5.88-7.03-6.8-12.84-5.03v22.19ZM68.71,106.49c-.83.02-1.67.05-2.5.07-1.29,2.36-3.78,4.86-3.52,7.03.23,1.91,3.53,3.46,5.48,5.16,1.79-2.09,4.71-4.04,4.99-6.31.22-1.78-2.84-3.96-4.45-5.96ZM121.5,114.46c-.01-.82-.03-1.63-.04-2.45-2.08-1.56-3.99-4.05-6.27-4.46-3.44-.61-6.38,1.93-5.74,5.43.39,2.15,3.22,5.24,5.14,5.38,2.2.16,4.6-2.48,6.91-3.9Z"/></g></svg>