<?xml version="1.0" standalone="no"?>
<!DOCTYPE svg PUBLIC "-//W3C//DTD SVG 20010904//EN"
 "http://www.w3.org/TR/2001/REC-SVG-20010904/DTD/svg10.dtd">
<svg version="1.0" xmlns="http://www.w3.org/2000/svg"
 width="500.000000pt" height="500.000000pt" viewBox="0 0 500.000000 500.000000"
 preserveAspectRatio="xMidYMid meet">

<g transform="translate(0.000000,500.000000) scale(0.100000,-0.100000)"
fill="#000000" stroke="none">
<path d="M1695 4011 c-98 -45 -120 -89 -154 -301 l-26 -165 -415 -5 c-299 -4
-421 -8 -436 -17 -30 -18 -83 -80 -89 -106 -3 -12 -4 -504 -3 -1093 l3 -1071
29 -37 c16 -21 47 -47 70 -57 40 -18 102 -19 1724 -19 1829 0 1720 -3 1780 53
55 51 52 -8 52 1148 l0 1072 -25 43 c-16 28 -39 49 -68 63 -42 20 -58 21 -448
21 l-405 0 -23 158 c-26 175 -38 212 -84 261 -70 74 -34 71 -777 71 -625 0
-667 -2 -705 -19z m1334 -263 c6 -35 17 -110 26 -168 19 -127 47 -180 119
-225 l49 -30 394 -3 393 -3 0 -979 0 -980 -1610 0 -1610 0 0 980 0 979 393 3
394 3 49 30 c77 48 100 95 123 255 11 74 23 150 27 168 l7 32 617 0 618 0 11
-62z"/>
<path d="M2181 3235 c-299 -78 -542 -344 -596 -654 -19 -107 -19 -176 0 -286
31 -179 108 -318 248 -451 168 -160 337 -227 577 -227 179 0 332 52 487 166
136 101 267 300 308 471 32 131 16 344 -35 478 -76 201 -262 392 -460 472
-152 62 -361 74 -529 31z m423 -228 c164 -61 309 -208 366 -370 31 -87 38
-258 15 -347 -52 -201 -213 -371 -410 -433 -54 -16 -95 -21 -175 -21 -180 0
-298 49 -425 178 -123 123 -175 249 -175 423 0 104 14 170 55 258 55 120 160
226 283 287 95 47 152 58 282 54 93 -3 128 -8 184 -29z"/>
<path d="M3584 3142 c-48 -23 -83 -68 -95 -123 -27 -121 97 -244 211 -210 82
24 130 89 130 177 0 126 -132 209 -246 156z"/>
</g>
</svg>
