<svg xmlns="http://www.w3.org/2000/svg" xmlns:xlink="http://www.w3.org/1999/xlink" width="500" zoomAndPan="magnify" viewBox="0 0 375 374.999991" height="500" preserveAspectRatio="xMidYMid meet" version="1.0"><defs><clipPath id="fe7fcffdec"><path d="M 49.878906 61.0625 L 325.128906 61.0625 L 325.128906 313.8125 L 49.878906 313.8125 Z M 49.878906 61.0625 " clip-rule="nonzero"/></clipPath></defs><g clip-path="url(#fe7fcffdec)"><path fill="#000000" d="M 73.691406 159.597656 L 73.707031 159.628906 L 73.898438 160.09375 C 81.492188 178.40625 104.53125 207.1875 140.523438 243.320312 C 159.867188 262.738281 178.175781 279.453125 187.503906 287.804688 C 196.847656 279.4375 215.214844 262.675781 234.570312 243.238281 C 270.515625 207.144531 293.523438 178.394531 301.113281 160.097656 L 301.300781 159.648438 C 304.074219 152.785156 305.480469 145.539062 305.480469 138.105469 C 305.480469 106.40625 279.675781 80.613281 247.957031 80.613281 C 236.628906 80.613281 226.210938 88.089844 219.46875 94.363281 C 208.300781 104.753906 200.71875 117.390625 197.171875 124.042969 L 187.503906 142.902344 L 177.839844 124.039062 C 174.296875 117.386719 166.714844 104.746094 155.542969 94.359375 C 148.796875 88.085938 138.378906 80.609375 127.054688 80.609375 C 95.335938 80.609375 69.53125 106.398438 69.53125 138.101562 C 69.53125 145.519531 70.933594 152.75 73.691406 159.597656 Z M 187.503906 313.804688 L 181.089844 308.234375 C 176.832031 304.535156 76.902344 217.359375 56.042969 168.066406 L 56.019531 168.015625 L 55.804688 167.507812 C 51.941406 158.144531 49.980469 148.25 49.980469 138.101562 C 49.980469 95.625 84.554688 61.066406 127.054688 61.066406 C 151.394531 61.066406 172.992188 80.570312 187.507812 102.203125 C 202.023438 80.574219 223.617188 61.074219 247.957031 61.074219 C 290.453125 61.074219 325.027344 95.632812 325.027344 138.105469 C 325.027344 148.257812 323.070312 158.152344 319.207031 167.511719 L 318.957031 168.09375 C 298.070312 217.394531 198.175781 304.535156 193.917969 308.234375 L 187.503906 313.804688 " fill-opacity="1" fill-rule="nonzero"/></g></svg>