<svg xmlns="http://www.w3.org/2000/svg" xmlns:xlink="http://www.w3.org/1999/xlink" width="500" zoomAndPan="magnify" viewBox="0 0 375 374.999991" height="500" preserveAspectRatio="xMidYMid meet" version="1.0"><defs><clipPath id="2af62b093f"><path d="M 39 59 L 336 59 L 336 317.8125 L 39 317.8125 Z M 39 59 " clip-rule="nonzero"/></clipPath></defs><g clip-path="url(#2af62b093f)"><path fill="#000000" d="M 321.390625 155.625 L 292.832031 155.625 L 234.140625 66.371094 C 229.691406 59.738281 220.800781 57.859375 214.179688 62.3125 C 207.65625 66.667969 205.78125 75.574219 210.128906 82.203125 L 258.546875 155.625 L 116.453125 155.625 L 164.871094 82.203125 C 169.21875 75.574219 167.34375 66.667969 160.820312 62.3125 C 154.199219 57.859375 145.308594 59.738281 140.859375 66.371094 L 82.167969 155.625 L 53.609375 155.625 C 45.707031 155.625 39.28125 162.058594 39.28125 169.976562 C 39.28125 177.988281 45.707031 184.421875 53.609375 184.421875 L 60.03125 184.421875 L 82.167969 284.664062 C 86.613281 304.550781 103.90625 318.40625 124.261719 318.40625 L 250.738281 318.40625 C 271.09375 318.40625 288.386719 304.550781 292.832031 284.664062 L 314.96875 184.421875 L 321.390625 184.421875 C 329.292969 184.421875 335.71875 177.988281 335.71875 169.976562 C 335.71875 162.058594 329.292969 155.625 321.390625 155.625 Z M 154.003906 259.921875 C 154.003906 267.839844 147.582031 274.273438 139.675781 274.273438 C 131.769531 274.273438 125.347656 267.839844 125.347656 259.921875 L 125.347656 214.207031 C 125.347656 206.289062 131.769531 199.859375 139.675781 199.859375 C 147.582031 199.859375 154.003906 206.289062 154.003906 214.207031 Z M 201.828125 259.921875 C 201.828125 267.839844 195.40625 274.273438 187.5 274.273438 C 179.59375 274.273438 173.171875 267.839844 173.171875 259.921875 L 173.171875 214.207031 C 173.171875 206.289062 179.59375 199.859375 187.5 199.859375 C 195.40625 199.859375 201.828125 206.289062 201.828125 214.207031 Z M 249.652344 259.921875 C 249.652344 267.839844 243.230469 274.273438 235.324219 274.273438 C 227.417969 274.273438 220.996094 267.839844 220.996094 259.921875 L 220.996094 214.207031 C 220.996094 206.289062 227.417969 199.859375 235.324219 199.859375 C 243.230469 199.859375 249.652344 206.289062 249.652344 214.207031 Z M 249.652344 259.921875 " fill-opacity="1" fill-rule="nonzero"/></g></svg>