<svg xmlns="http://www.w3.org/2000/svg" xmlns:xlink="http://www.w3.org/1999/xlink" width="500" zoomAndPan="magnify" viewBox="0 0 375 374.999991" height="500" preserveAspectRatio="xMidYMid meet" version="1.0"><defs><clipPath id="feab4bd7b5"><path d="M 59.285156 68.085938 L 315.714844 68.085938 L 315.714844 113.003906 L 59.285156 113.003906 Z M 59.285156 68.085938 " clip-rule="nonzero"/></clipPath><clipPath id="8de2655f44"><path d="M 59.285156 156.457031 L 315.714844 156.457031 L 315.714844 201.371094 L 59.285156 201.371094 Z M 59.285156 156.457031 " clip-rule="nonzero"/></clipPath><clipPath id="99fb104f27"><path d="M 59.285156 244.824219 L 315.714844 244.824219 L 315.714844 289.742188 L 59.285156 289.742188 Z M 59.285156 244.824219 " clip-rule="nonzero"/></clipPath></defs><g clip-path="url(#feab4bd7b5)"><path fill="#000000" d="M 59.285156 68.085938 L 315.628906 68.085938 L 315.628906 113.003906 L 59.285156 113.003906 Z M 59.285156 68.085938 " fill-opacity="1" fill-rule="nonzero"/></g><g clip-path="url(#8de2655f44)"><path fill="#000000" d="M 59.285156 156.457031 L 315.628906 156.457031 L 315.628906 201.371094 L 59.285156 201.371094 Z M 59.285156 156.457031 " fill-opacity="1" fill-rule="nonzero"/></g><g clip-path="url(#99fb104f27)"><path fill="#000000" d="M 59.285156 244.824219 L 315.628906 244.824219 L 315.628906 289.742188 L 59.285156 289.742188 Z M 59.285156 244.824219 " fill-opacity="1" fill-rule="nonzero"/></g></svg>