<svg xmlns="http://www.w3.org/2000/svg" xmlns:xlink="http://www.w3.org/1999/xlink" width="500" zoomAndPan="magnify" viewBox="0 0 375 374.999991" height="500" preserveAspectRatio="xMidYMid meet" version="1.0"><defs><clipPath id="d7ac7a92a2"><path d="M 67.789062 57.292969 L 307.039062 57.292969 L 307.039062 317.542969 L 67.789062 317.542969 Z M 67.789062 57.292969 " clip-rule="nonzero"/></clipPath></defs><g clip-path="url(#d7ac7a92a2)"><path fill="#000000" d="M 307.023438 294.042969 L 307.023438 291.414062 C 307.023438 275.273438 303.859375 259.605469 297.621094 244.847656 C 291.59375 230.605469 282.972656 217.8125 271.992188 206.832031 C 261.015625 195.851562 248.222656 187.226562 233.980469 181.203125 C 233.042969 180.804688 232.101562 180.425781 231.152344 180.050781 C 232.945312 178.585938 234.671875 177.027344 236.324219 175.371094 C 242.671875 169.023438 247.65625 161.628906 251.140625 153.390625 C 254.75 144.855469 256.582031 135.792969 256.582031 126.460938 C 256.582031 117.132812 254.75 108.070312 251.140625 99.535156 C 247.65625 91.296875 242.671875 83.902344 236.324219 77.550781 C 229.976562 71.203125 222.582031 66.21875 214.34375 62.734375 C 205.808594 59.125 196.75 57.292969 187.417969 57.292969 C 178.089844 57.292969 169.027344 59.125 160.492188 62.734375 C 152.253906 66.21875 144.859375 71.203125 138.511719 77.550781 C 132.164062 83.902344 127.179688 91.296875 123.695312 99.535156 C 120.085938 108.070312 118.257812 117.132812 118.257812 126.460938 C 118.257812 135.792969 120.085938 144.855469 123.695312 153.390625 C 127.179688 161.628906 132.167969 169.023438 138.511719 175.371094 C 140.167969 177.027344 141.894531 178.585938 143.683594 180.050781 C 142.738281 180.425781 141.792969 180.808594 140.859375 181.203125 C 126.613281 187.226562 113.824219 195.851562 102.84375 206.832031 C 91.863281 217.8125 83.242188 230.605469 77.21875 244.847656 C 70.976562 259.605469 67.8125 275.273438 67.8125 291.414062 L 67.8125 294.042969 C 67.8125 306.320312 77.234375 316.4375 89.226562 317.546875 L 287.234375 317.339844 L 287.308594 317.332031 C 289.367188 317.117188 291.367188 316.507812 293.191406 315.527344 C 301.34375 311.808594 307.023438 303.578125 307.023438 294.042969 Z M 136.441406 148 C 133.558594 141.175781 132.09375 133.933594 132.09375 126.460938 C 132.09375 118.992188 133.558594 111.746094 136.441406 104.925781 C 139.230469 98.335938 143.21875 92.421875 148.300781 87.339844 C 153.378906 82.257812 159.296875 78.269531 165.882812 75.480469 C 172.703125 72.597656 179.949219 71.132812 187.417969 71.132812 C 194.886719 71.132812 202.132812 72.597656 208.953125 75.480469 C 215.539062 78.269531 221.457031 82.257812 226.539062 87.339844 C 231.617188 92.421875 235.609375 98.335938 238.394531 104.925781 C 241.277344 111.746094 242.742188 118.992188 242.742188 126.460938 C 242.742188 133.933594 241.277344 141.175781 238.394531 148 C 235.605469 154.585938 231.617188 160.503906 226.539062 165.585938 C 221.457031 170.667969 215.539062 174.65625 208.953125 177.441406 C 202.132812 180.328125 194.886719 181.789062 187.417969 181.789062 C 179.949219 181.789062 172.703125 180.328125 165.882812 177.441406 C 159.296875 174.65625 153.378906 170.667969 148.300781 165.585938 C 143.21875 160.503906 139.230469 154.585938 136.441406 148 Z M 293.183594 294.042969 C 293.183594 299.425781 288.804688 303.808594 283.421875 303.808594 L 91.414062 303.808594 C 86.03125 303.808594 81.652344 299.425781 81.652344 294.042969 L 81.652344 291.414062 C 81.652344 277.132812 84.449219 263.28125 89.964844 250.238281 C 95.289062 237.644531 102.917969 226.332031 112.628906 216.617188 C 122.34375 206.902344 133.652344 199.277344 146.25 193.949219 C 149.023438 192.773438 151.875 191.710938 154.726562 190.78125 C 155.71875 190.460938 156.730469 190.148438 157.730469 189.855469 C 158.105469 189.746094 158.460938 189.605469 158.796875 189.445312 C 159.359375 189.699219 159.921875 189.949219 160.492188 190.191406 C 169.027344 193.800781 178.085938 195.632812 187.417969 195.632812 C 196.75 195.632812 205.808594 193.800781 214.34375 190.191406 C 214.914062 189.949219 215.476562 189.699219 216.039062 189.445312 C 216.375 189.605469 216.734375 189.746094 217.105469 189.855469 C 220.980469 190.988281 224.84375 192.363281 228.585938 193.949219 C 241.183594 199.277344 252.496094 206.902344 262.207031 216.617188 C 271.917969 226.332031 279.546875 237.644531 284.875 250.238281 C 290.386719 263.28125 293.183594 277.132812 293.183594 291.414062 Z M 293.183594 294.042969 " fill-opacity="1" fill-rule="nonzero"/></g></svg>