<?xml version="1.0" standalone="no"?>
<!DOCTYPE svg PUBLIC "-//W3C//DTD SVG 20010904//EN"
 "http://www.w3.org/TR/2001/REC-SVG-20010904/DTD/svg10.dtd">
<svg version="1.0" xmlns="http://www.w3.org/2000/svg"
 width="500.000000pt" height="500.000000pt" viewBox="0 0 500.000000 500.000000"
 preserveAspectRatio="xMidYMid meet">

<g transform="translate(0.000000,500.000000) scale(0.100000,-0.100000)"
fill="#000000" stroke="none">
<path d="M2005 4026 c-132 -25 -230 -57 -340 -110 -317 -153 -552 -420 -659
-750 -82 -251 -81 -539 4 -797 34 -103 116 -258 185 -351 408 -544 1166 -669
1734 -285 l73 49 142 -138 c77 -77 287 -284 466 -461 179 -177 338 -327 353
-333 39 -14 63 -13 103 6 65 31 95 126 60 192 -8 15 -219 231 -469 481 l-455
454 56 81 c96 140 164 306 199 484 22 114 22 326 0 447 -91 498 -455 885 -952
1012 -124 31 -384 41 -500 19z m383 -281 c702 -133 1035 -935 635 -1526 -54
-79 -179 -206 -253 -256 -254 -172 -589 -220 -872 -124 -202 68 -353 177 -478
343 -272 360 -264 855 19 1210 147 186 386 325 614 358 90 13 252 11 335 -5z"/>
</g>
</svg>
